<mxfile host="app.diagrams.net" agent="Mozilla/5.0 (Macintosh; Intel Mac OS X 10_15_7) AppleWebKit/537.36 (KHTML, like Gecko) Chrome/131.0.0.0 Safari/537.36" version="26.0.6">
  <diagram name="Page-1" id="8OSkhBTiCHUHvm_VivJM">
    <mxGraphModel dx="1193" dy="799" grid="1" gridSize="10" guides="1" tooltips="1" connect="1" arrows="1" fold="1" page="1" pageScale="1" pageWidth="827" pageHeight="1169" math="0" shadow="0">
      <root>
        <mxCell id="0" />
        <mxCell id="1" parent="0" />
        <mxCell id="viHUJcPi8CYymYiDgVDF-1" value="CHAT APPLICATION&lt;div&gt;&lt;br&gt;&lt;/div&gt;&lt;div&gt;Functional requirements&lt;/div&gt;&lt;div&gt;1. one to one chatting&lt;/div&gt;&lt;div&gt;2. group chatting&lt;/div&gt;&lt;div&gt;3. notifications&lt;/div&gt;&lt;div&gt;4. text based messages only&lt;/div&gt;&lt;div&gt;5. delivered ticks&lt;/div&gt;&lt;div&gt;6. read ticks&lt;/div&gt;&lt;div&gt;7. online indicator&lt;/div&gt;&lt;div&gt;8. old messages&lt;/div&gt;&lt;div&gt;&lt;br&gt;&lt;/div&gt;&lt;div&gt;&lt;br&gt;&lt;/div&gt;&lt;div&gt;Non Functional requirements&lt;/div&gt;&lt;div&gt;scalable daily active users (100 million)&lt;/div&gt;&lt;div&gt;Availability highly available&lt;/div&gt;&lt;div&gt;Low latency (real time chatting) and indicators&lt;/div&gt;" style="text;html=1;align=center;verticalAlign=middle;resizable=0;points=[];autosize=1;strokeColor=none;fillColor=none;" vertex="1" parent="1">
          <mxGeometry x="15" y="43" width="270" height="260" as="geometry" />
        </mxCell>
        <mxCell id="viHUJcPi8CYymYiDgVDF-2" value="&lt;b&gt;Core entities&lt;/b&gt;&lt;div&gt;&lt;br&gt;&lt;/div&gt;&lt;div&gt;User&amp;nbsp;&lt;/div&gt;&lt;div&gt;Message&lt;/div&gt;&lt;div&gt;Channel&lt;/div&gt;&lt;div&gt;User Status&lt;/div&gt;" style="text;html=1;align=center;verticalAlign=middle;resizable=0;points=[];autosize=1;strokeColor=none;fillColor=none;" vertex="1" parent="1">
          <mxGeometry x="90" y="340" width="100" height="100" as="geometry" />
        </mxCell>
        <mxCell id="viHUJcPi8CYymYiDgVDF-3" value="&lt;b&gt;APIs&lt;/b&gt;&lt;div&gt;&lt;b&gt;&lt;br&gt;&lt;/b&gt;&lt;/div&gt;&lt;div&gt;1.send message&lt;/div&gt;&lt;div&gt;2. get message&lt;/div&gt;&lt;div&gt;3. get messages&lt;/div&gt;&lt;div&gt;4. user status&lt;br&gt;5. list of users&lt;/div&gt;&lt;div&gt;6. list of channels&lt;/div&gt;" style="text;html=1;align=center;verticalAlign=middle;resizable=0;points=[];autosize=1;strokeColor=none;fillColor=none;" vertex="1" parent="1">
          <mxGeometry x="110" y="458" width="120" height="130" as="geometry" />
        </mxCell>
        <mxCell id="viHUJcPi8CYymYiDgVDF-6" style="edgeStyle=orthogonalEdgeStyle;rounded=0;orthogonalLoop=1;jettySize=auto;html=1;" edge="1" parent="1" source="viHUJcPi8CYymYiDgVDF-4">
          <mxGeometry relative="1" as="geometry">
            <mxPoint x="430" y="780" as="targetPoint" />
          </mxGeometry>
        </mxCell>
        <mxCell id="viHUJcPi8CYymYiDgVDF-4" value="Actor" style="shape=umlActor;verticalLabelPosition=bottom;verticalAlign=top;html=1;outlineConnect=0;" vertex="1" parent="1">
          <mxGeometry x="100" y="750" width="30" height="60" as="geometry" />
        </mxCell>
        <mxCell id="viHUJcPi8CYymYiDgVDF-5" value="Actor" style="shape=umlActor;verticalLabelPosition=bottom;verticalAlign=top;html=1;outlineConnect=0;" vertex="1" parent="1">
          <mxGeometry x="100" y="890" width="30" height="60" as="geometry" />
        </mxCell>
        <mxCell id="viHUJcPi8CYymYiDgVDF-10" style="edgeStyle=orthogonalEdgeStyle;rounded=0;orthogonalLoop=1;jettySize=auto;html=1;" edge="1" parent="1" source="viHUJcPi8CYymYiDgVDF-7" target="viHUJcPi8CYymYiDgVDF-9">
          <mxGeometry relative="1" as="geometry" />
        </mxCell>
        <mxCell id="viHUJcPi8CYymYiDgVDF-11" style="edgeStyle=orthogonalEdgeStyle;rounded=0;orthogonalLoop=1;jettySize=auto;html=1;" edge="1" parent="1" source="viHUJcPi8CYymYiDgVDF-7" target="viHUJcPi8CYymYiDgVDF-5">
          <mxGeometry relative="1" as="geometry">
            <Array as="points">
              <mxPoint x="520" y="900" />
            </Array>
          </mxGeometry>
        </mxCell>
        <mxCell id="viHUJcPi8CYymYiDgVDF-7" value="MESSAGING SERVICE" style="whiteSpace=wrap;html=1;aspect=fixed;" vertex="1" parent="1">
          <mxGeometry x="420" y="850" width="180" height="180" as="geometry" />
        </mxCell>
        <mxCell id="viHUJcPi8CYymYiDgVDF-8" value="{&lt;br&gt;TO, TEXT}" style="text;html=1;align=center;verticalAlign=middle;whiteSpace=wrap;rounded=0;" vertex="1" parent="1">
          <mxGeometry x="240" y="740" width="60" height="30" as="geometry" />
        </mxCell>
        <mxCell id="viHUJcPi8CYymYiDgVDF-9" value="USERS" style="shape=cylinder3;whiteSpace=wrap;html=1;boundedLbl=1;backgroundOutline=1;size=15;" vertex="1" parent="1">
          <mxGeometry x="740" y="740" width="60" height="80" as="geometry" />
        </mxCell>
        <mxCell id="viHUJcPi8CYymYiDgVDF-12" value="MESSAGES" style="shape=cylinder3;whiteSpace=wrap;html=1;boundedLbl=1;backgroundOutline=1;size=15;" vertex="1" parent="1">
          <mxGeometry x="790" y="1270" width="60" height="80" as="geometry" />
        </mxCell>
        <mxCell id="viHUJcPi8CYymYiDgVDF-13" style="edgeStyle=orthogonalEdgeStyle;rounded=0;orthogonalLoop=1;jettySize=auto;html=1;exitX=1;exitY=0.75;exitDx=0;exitDy=0;entryX=0;entryY=0;entryDx=0;entryDy=52.5;entryPerimeter=0;" edge="1" parent="1" source="viHUJcPi8CYymYiDgVDF-15" target="viHUJcPi8CYymYiDgVDF-12">
          <mxGeometry relative="1" as="geometry" />
        </mxCell>
        <mxCell id="viHUJcPi8CYymYiDgVDF-14" value="" style="edgeStyle=orthogonalEdgeStyle;rounded=0;orthogonalLoop=1;jettySize=auto;html=1;exitX=1;exitY=0.75;exitDx=0;exitDy=0;entryX=0;entryY=0;entryDx=0;entryDy=52.5;entryPerimeter=0;" edge="1" parent="1" source="viHUJcPi8CYymYiDgVDF-7" target="viHUJcPi8CYymYiDgVDF-15">
          <mxGeometry relative="1" as="geometry">
            <mxPoint x="610" y="825" as="sourcePoint" />
            <mxPoint x="740" y="903" as="targetPoint" />
          </mxGeometry>
        </mxCell>
        <mxCell id="viHUJcPi8CYymYiDgVDF-15" value="PERSIST IN QUEUE TO DB" style="shape=process;whiteSpace=wrap;html=1;backgroundOutline=1;" vertex="1" parent="1">
          <mxGeometry x="670" y="950" width="120" height="60" as="geometry" />
        </mxCell>
        <mxCell id="viHUJcPi8CYymYiDgVDF-16" value="DB SERVICE" style="rounded=0;whiteSpace=wrap;html=1;" vertex="1" parent="1">
          <mxGeometry x="700" y="1099" width="120" height="60" as="geometry" />
        </mxCell>
        <mxCell id="viHUJcPi8CYymYiDgVDF-23" value="" style="edgeStyle=orthogonalEdgeStyle;rounded=0;orthogonalLoop=1;jettySize=auto;html=1;" edge="1" parent="1" source="viHUJcPi8CYymYiDgVDF-18" target="viHUJcPi8CYymYiDgVDF-22">
          <mxGeometry relative="1" as="geometry" />
        </mxCell>
        <mxCell id="viHUJcPi8CYymYiDgVDF-18" value="MESSAGING SERVICE" style="whiteSpace=wrap;html=1;aspect=fixed;" vertex="1" parent="1">
          <mxGeometry x="420" y="630" width="180" height="180" as="geometry" />
        </mxCell>
        <mxCell id="viHUJcPi8CYymYiDgVDF-19" value="MESSAGING SERVICE" style="whiteSpace=wrap;html=1;aspect=fixed;" vertex="1" parent="1">
          <mxGeometry x="420" y="1070" width="180" height="180" as="geometry" />
        </mxCell>
        <mxCell id="viHUJcPi8CYymYiDgVDF-21" value="USERS-CONNS" style="shape=cylinder3;whiteSpace=wrap;html=1;boundedLbl=1;backgroundOutline=1;size=15;" vertex="1" parent="1">
          <mxGeometry x="740" y="610" width="60" height="80" as="geometry" />
        </mxCell>
        <mxCell id="viHUJcPi8CYymYiDgVDF-22" value="USER 1 QUEUE" style="shape=process;whiteSpace=wrap;html=1;backgroundOutline=1;" vertex="1" parent="1">
          <mxGeometry x="620" y="705" width="80" height="30" as="geometry" />
        </mxCell>
        <mxCell id="viHUJcPi8CYymYiDgVDF-26" value="" style="edgeStyle=orthogonalEdgeStyle;rounded=0;orthogonalLoop=1;jettySize=auto;html=1;" edge="1" parent="1" source="viHUJcPi8CYymYiDgVDF-24" target="viHUJcPi8CYymYiDgVDF-7">
          <mxGeometry relative="1" as="geometry" />
        </mxCell>
        <mxCell id="viHUJcPi8CYymYiDgVDF-24" value="USER 2 QUEUE" style="shape=process;whiteSpace=wrap;html=1;backgroundOutline=1;" vertex="1" parent="1">
          <mxGeometry x="630" y="880" width="80" height="30" as="geometry" />
        </mxCell>
        <mxCell id="viHUJcPi8CYymYiDgVDF-27" value="" style="whiteSpace=wrap;html=1;aspect=fixed;" vertex="1" parent="1">
          <mxGeometry x="370" y="870" width="80" height="80" as="geometry" />
        </mxCell>
        <mxCell id="viHUJcPi8CYymYiDgVDF-29" value="" style="shape=process;whiteSpace=wrap;html=1;backgroundOutline=1;" vertex="1" parent="1">
          <mxGeometry x="340" y="1530" width="160" height="410" as="geometry" />
        </mxCell>
        <mxCell id="viHUJcPi8CYymYiDgVDF-30" value="" style="whiteSpace=wrap;html=1;aspect=fixed;" vertex="1" parent="1">
          <mxGeometry x="190" y="1640" width="80" height="80" as="geometry" />
        </mxCell>
        <mxCell id="viHUJcPi8CYymYiDgVDF-31" value="MESSAGING SERVICE (USER 2)&amp;nbsp;" style="whiteSpace=wrap;html=1;aspect=fixed;" vertex="1" parent="1">
          <mxGeometry x="610" y="1630" width="80" height="80" as="geometry" />
        </mxCell>
        <mxCell id="viHUJcPi8CYymYiDgVDF-32" value="Actor" style="shape=umlActor;verticalLabelPosition=bottom;verticalAlign=top;html=1;outlineConnect=0;" vertex="1" parent="1">
          <mxGeometry x="80" y="1640" width="30" height="60" as="geometry" />
        </mxCell>
        <mxCell id="viHUJcPi8CYymYiDgVDF-33" style="edgeStyle=orthogonalEdgeStyle;rounded=0;orthogonalLoop=1;jettySize=auto;html=1;entryX=-0.05;entryY=0.4;entryDx=0;entryDy=0;entryPerimeter=0;" edge="1" parent="1" source="viHUJcPi8CYymYiDgVDF-32" target="viHUJcPi8CYymYiDgVDF-30">
          <mxGeometry relative="1" as="geometry" />
        </mxCell>
        <mxCell id="viHUJcPi8CYymYiDgVDF-35" style="edgeStyle=orthogonalEdgeStyle;rounded=0;orthogonalLoop=1;jettySize=auto;html=1;entryX=1;entryY=0.5;entryDx=0;entryDy=0;" edge="1" parent="1" source="viHUJcPi8CYymYiDgVDF-34" target="viHUJcPi8CYymYiDgVDF-31">
          <mxGeometry relative="1" as="geometry">
            <Array as="points">
              <mxPoint x="800" y="1670" />
              <mxPoint x="800" y="1670" />
            </Array>
          </mxGeometry>
        </mxCell>
        <mxCell id="viHUJcPi8CYymYiDgVDF-34" value="Actor" style="shape=umlActor;verticalLabelPosition=bottom;verticalAlign=top;html=1;outlineConnect=0;" vertex="1" parent="1">
          <mxGeometry x="840" y="1630" width="30" height="60" as="geometry" />
        </mxCell>
        <mxCell id="viHUJcPi8CYymYiDgVDF-36" style="edgeStyle=orthogonalEdgeStyle;rounded=0;orthogonalLoop=1;jettySize=auto;html=1;exitX=1;exitY=0.5;exitDx=0;exitDy=0;entryX=-0.019;entryY=0.363;entryDx=0;entryDy=0;entryPerimeter=0;" edge="1" parent="1" source="viHUJcPi8CYymYiDgVDF-30" target="viHUJcPi8CYymYiDgVDF-29">
          <mxGeometry relative="1" as="geometry" />
        </mxCell>
        <mxCell id="viHUJcPi8CYymYiDgVDF-37" value="USER 1 Q" style="shape=process;whiteSpace=wrap;html=1;backgroundOutline=1;" vertex="1" parent="1">
          <mxGeometry x="360" y="1550" width="120" height="60" as="geometry" />
        </mxCell>
        <mxCell id="viHUJcPi8CYymYiDgVDF-38" value="USER 2 Q" style="shape=process;whiteSpace=wrap;html=1;backgroundOutline=1;" vertex="1" parent="1">
          <mxGeometry x="360" y="1724" width="120" height="60" as="geometry" />
        </mxCell>
      </root>
    </mxGraphModel>
  </diagram>
</mxfile>
